<?xml version="1.0" encoding="UTF-8" standalone="no"?><svg xmlns="http://www.w3.org/2000/svg" xmlns:xlink="http://www.w3.org/1999/xlink" contentScriptType="application/ecmascript" contentStyleType="text/css" height="459px" preserveAspectRatio="none" style="width:577px;height:459px;" version="1.1" viewBox="0 0 577 459" width="577px" zoomAndPan="magnify"><defs><filter height="300%" id="f1khayq0oc6yxf" width="300%" x="-1" y="-1"><feGaussianBlur result="blurOut" stdDeviation="2.0"/><feColorMatrix in="blurOut" result="blurOut2" type="matrix" values="0 0 0 0 0 0 0 0 0 0 0 0 0 0 0 0 0 0 .4 0"/><feOffset dx="4.0" dy="4.0" in="blurOut2" result="blurOut3"/><feBlend in="SourceGraphic" in2="blurOut3" mode="normal"/></filter></defs><g><text fill="#000000" font-family="sans-serif" font-size="18" lengthAdjust="spacingAndGlyphs" textLength="304" x="134.25" y="29.4023">React CSR + Google reCATPCHA v3</text><line style="stroke: #A80036; stroke-width: 1.0; stroke-dasharray: 5.0,5.0;" x1="47" x2="47" y1="123.6875" y2="374.5508"/><line style="stroke: #A80036; stroke-width: 1.0; stroke-dasharray: 5.0,5.0;" x1="143" x2="143" y1="123.6875" y2="374.5508"/><line style="stroke: #A80036; stroke-width: 1.0; stroke-dasharray: 5.0,5.0;" x1="300.5" x2="300.5" y1="123.6875" y2="374.5508"/><line style="stroke: #A80036; stroke-width: 1.0; stroke-dasharray: 5.0,5.0;" x1="491.5" x2="491.5" y1="123.6875" y2="374.5508"/><text fill="#000000" font-family="sans-serif" font-size="14" lengthAdjust="spacingAndGlyphs" textLength="79" x="5" y="120.7344">User Device</text><ellipse cx="47.5" cy="50.1992" fill="#FEFECE" filter="url(#f1khayq0oc6yxf)" rx="8" ry="8" style="stroke: #A80036; stroke-width: 2.0;"/><path d="M47.5,58.1992 L47.5,85.1992 M34.5,66.1992 L60.5,66.1992 M47.5,85.1992 L34.5,100.1992 M47.5,85.1992 L60.5,100.1992 " fill="none" filter="url(#f1khayq0oc6yxf)" style="stroke: #A80036; stroke-width: 2.0;"/><text fill="#000000" font-family="sans-serif" font-size="14" lengthAdjust="spacingAndGlyphs" textLength="79" x="5" y="387.0859">User Device</text><ellipse cx="47.5" cy="400.0391" fill="#FEFECE" filter="url(#f1khayq0oc6yxf)" rx="8" ry="8" style="stroke: #A80036; stroke-width: 2.0;"/><path d="M47.5,408.0391 L47.5,435.0391 M34.5,416.0391 L60.5,416.0391 M47.5,435.0391 L34.5,450.0391 M47.5,435.0391 L60.5,450.0391 " fill="none" filter="url(#f1khayq0oc6yxf)" style="stroke: #A80036; stroke-width: 2.0;"/><rect fill="#FEFECE" filter="url(#f1khayq0oc6yxf)" height="30.4883" style="stroke: #A80036; stroke-width: 1.5;" width="82" x="100" y="88.1992"/><text fill="#000000" font-family="sans-serif" font-size="14" lengthAdjust="spacingAndGlyphs" textLength="68" x="107" y="108.7344">React CSR</text><rect fill="#FEFECE" filter="url(#f1khayq0oc6yxf)" height="30.4883" style="stroke: #A80036; stroke-width: 1.5;" width="82" x="100" y="373.5508"/><text fill="#000000" font-family="sans-serif" font-size="14" lengthAdjust="spacingAndGlyphs" textLength="68" x="107" y="394.0859">React CSR</text><rect fill="#FEFECE" filter="url(#f1khayq0oc6yxf)" height="30.4883" style="stroke: #A80036; stroke-width: 1.5;" width="118" x="239.5" y="88.1992"/><text fill="#000000" font-family="sans-serif" font-size="14" lengthAdjust="spacingAndGlyphs" textLength="104" x="246.5" y="108.7344">Backend Server</text><rect fill="#FEFECE" filter="url(#f1khayq0oc6yxf)" height="30.4883" style="stroke: #A80036; stroke-width: 1.5;" width="118" x="239.5" y="373.5508"/><text fill="#000000" font-family="sans-serif" font-size="14" lengthAdjust="spacingAndGlyphs" textLength="104" x="246.5" y="394.0859">Backend Server</text><rect fill="#FEFECE" filter="url(#f1khayq0oc6yxf)" height="30.4883" style="stroke: #A80036; stroke-width: 1.5;" width="148" x="415.5" y="88.1992"/><text fill="#000000" font-family="sans-serif" font-size="14" lengthAdjust="spacingAndGlyphs" textLength="134" x="422.5" y="108.7344">Google reCAPTCHA</text><rect fill="#FEFECE" filter="url(#f1khayq0oc6yxf)" height="30.4883" style="stroke: #A80036; stroke-width: 1.5;" width="148" x="415.5" y="373.5508"/><text fill="#000000" font-family="sans-serif" font-size="14" lengthAdjust="spacingAndGlyphs" textLength="134" x="422.5" y="394.0859">Google reCAPTCHA</text><polygon fill="#A80036" points="131,150.998,141,154.998,131,158.998,135,154.998" style="stroke: #A80036; stroke-width: 1.0;"/><line style="stroke: #A80036; stroke-width: 1.0;" x1="47.5" x2="137" y1="154.998" y2="154.998"/><text fill="#000000" font-family="sans-serif" font-size="13" lengthAdjust="spacingAndGlyphs" textLength="64" x="54.5" y="150.2559">Load page</text><polygon fill="#A80036" points="58.5,164.998,48.5,168.998,58.5,172.998,54.5,168.998" style="stroke: #A80036; stroke-width: 1.0;"/><line style="stroke: #A80036; stroke-width: 1.0;" x1="52.5" x2="142" y1="168.998" y2="168.998"/><polygon fill="#A80036" points="479.5,194.3086,489.5,198.3086,479.5,202.3086,483.5,198.3086" style="stroke: #A80036; stroke-width: 1.0;"/><line style="stroke: #A80036; stroke-width: 1.0;" x1="47.5" x2="485.5" y1="198.3086" y2="198.3086"/><text fill="#000000" font-family="sans-serif" font-size="13" lengthAdjust="spacingAndGlyphs" textLength="138" x="54.5" y="193.5664">Get reCAPTCHA token</text><polygon fill="#A80036" points="58.5,208.3086,48.5,212.3086,58.5,216.3086,54.5,212.3086" style="stroke: #A80036; stroke-width: 1.0;"/><line style="stroke: #A80036; stroke-width: 1.0;" x1="52.5" x2="490.5" y1="212.3086" y2="212.3086"/><polygon fill="#A80036" points="288.5,237.6191,298.5,241.6191,288.5,245.6191,292.5,241.6191" style="stroke: #A80036; stroke-width: 1.0;"/><line style="stroke: #A80036; stroke-width: 1.0;" x1="47.5" x2="294.5" y1="241.6191" y2="241.6191"/><text fill="#000000" font-family="sans-serif" font-size="13" lengthAdjust="spacingAndGlyphs" textLength="229" x="54.5" y="236.877">Request data with reCAPTCHA token</text><polygon fill="#A80036" points="479.5,266.9297,489.5,270.9297,479.5,274.9297,483.5,270.9297" style="stroke: #A80036; stroke-width: 1.0;"/><line style="stroke: #A80036; stroke-width: 1.0;" x1="300.5" x2="485.5" y1="270.9297" y2="270.9297"/><text fill="#000000" font-family="sans-serif" font-size="13" lengthAdjust="spacingAndGlyphs" textLength="167" x="307.5" y="266.1875">Validate reCATPCHA token</text><polygon fill="#A80036" points="311.5,280.9297,301.5,284.9297,311.5,288.9297,307.5,284.9297" style="stroke: #A80036; stroke-width: 1.0;"/><line style="stroke: #A80036; stroke-width: 1.0;" x1="305.5" x2="490.5" y1="284.9297" y2="284.9297"/><polygon fill="#A80036" points="58.5,310.2402,48.5,314.2402,58.5,318.2402,54.5,314.2402" style="stroke: #A80036; stroke-width: 1.0;"/><line style="stroke: #A80036; stroke-width: 1.0;" x1="52.5" x2="299.5" y1="314.2402" y2="314.2402"/><text fill="#000000" font-family="sans-serif" font-size="13" lengthAdjust="spacingAndGlyphs" textLength="72" x="64.5" y="309.498">Return data</text><line style="stroke: #A80036; stroke-width: 1.0;" x1="47.5" x2="89.5" y1="343.5508" y2="343.5508"/><line style="stroke: #A80036; stroke-width: 1.0;" x1="89.5" x2="89.5" y1="343.5508" y2="356.5508"/><line style="stroke: #A80036; stroke-width: 1.0;" x1="48.5" x2="89.5" y1="356.5508" y2="356.5508"/><polygon fill="#A80036" points="58.5,352.5508,48.5,356.5508,58.5,360.5508,54.5,356.5508" style="stroke: #A80036; stroke-width: 1.0;"/><text fill="#000000" font-family="sans-serif" font-size="13" lengthAdjust="spacingAndGlyphs" textLength="78" x="54.5" y="338.8086">Display data</text><!--MD5=[508e8e89980c85d2afe747d42fb8b237]
@startuml

title React CSR + Google reCATPCHA v3

actor "User Device" as USER
participant "React CSR" as REACT
participant "Backend Server" as BE
participant "Google reCAPTCHA" as GR

USER -> REACT : Load page 
REACT -> USER
USER -> GR: Get reCAPTCHA token
GR -> USER
USER -> BE: Request data with reCAPTCHA token
BE -> GR: Validate reCATPCHA token
GR -> BE
BE -> USER: Return data
USER -> USER: Display data

@enduml

PlantUML version 1.2020.18(Thu Oct 01 03:40:44 SGT 2020)
(GPL source distribution)
Java Runtime: OpenJDK Runtime Environment
JVM: OpenJDK 64-Bit Server VM
Default Encoding: UTF-8
Language: en
Country: SG
--></g></svg>